# xmcd
#
# Track frame offsets:
#	150
#	23170
#	43517
#	68770
#	93742
#	122945
#	146735
#	172360
#	192692
#	214512
#	238242
#	262740
#
# Disc length: 3760 seconds
#
# Revision: 3
# Processed by: cddbd v1.5.2PL0 Copyright (c) Steve Scherf et al.
# Submitted via: EZCDAudioConverter 8.0.2.1
#
DISCID=b90eae0c
DTITLE=Various Artist - Dư Âm Mùa Giáng Sinh
DYEAR=1990
DGENRE=Holiday
TTITLE0=Thanh Mai - Jingle Bells
TTITLE1=Ngọc Lan - Xin Chúa thấu lòng con
TTITLE2=Hương Lan - Dư âm mùa Giáng Sinh
TTITLE3=Duy Quang - Hai mùa Noel
TTITLE4=Khánh Ly - Niềm tin
TTITLE5=Giao Linh - Nửa đêm khấn hứa
TTITLE6=Tuấn Anh - Bài Thánh Ca buồn
TTITLE7=Ngọc Lan - Mùa hoa tuyết
TTITLE8=Khánh Ly, Mai Hương - Ave Maria
TTITLE9=Giao Linh - Bóng nhỏ giáo đường
TTITLE10=Hương Lan - Tình người ngoại đạo
TTITLE11=Tuấn Anh, Mai Hương - Silent Night
EXTD=
EXTT0=
EXTT1=
EXTT2=
EXTT3=
EXTT4=
EXTT5=
EXTT6=
EXTT7=
EXTT8=
EXTT9=
EXTT10=
EXTT11=
PLAYORDER=
